# xmcd CD database file
#
# Track frame offsets:
#	180
#	27265
#	65058
#	78556
#	105155
#	136120
#	159488
#	187730
#	218580
#
# Disc length: 3278 seconds
#
# Revision: 0
# Processed by: cddbd v1.5PL3 Copyright (c) Steve Scherf et al.
# Submitted via: CDex 1.51
#
DISCID=690ccc09
DTITLE=Paris Jazz Quintet  - Paris Jazz Quintet 
DYEAR=2001
DGENRE=Jazz
TTITLE0=Marineland
TTITLE1=Heerenstraat 44
TTITLE2=More than a ballad
TTITLE3=Brand new millenium
TTITLE4=Waltz for Mel
TTITLE5=Fiston
TTITLE6=Passages secrets
TTITLE7=Dark
TTITLE8=Wayne
EXTD=YEAR: 2001
EXTT0=
EXTT1=
EXTT2=
EXTT3=
EXTT4=
EXTT5=
EXTT6=
EXTT7=
EXTT8=
PLAYORDER=
